HIERARCHY
ROOT Hips
{
	OFFSET -14.64140 90.27770 -84.91600
	CHANNELS 6 Xposition Yposition Zposition Zrotation Xrotation Yrotation
	JOINT Spine
	{
		OFFSET 0.00000 13.20850 -1.60436
		CHANNELS 3 Zrotation Xrotation Yrotation
		JOINT Spine1
		{
			OFFSET 0.00000 8.61716 0.00000
			CHANNELS 3 Zrotation Xrotation Yrotation
			JOINT Spine2
			{
				OFFSET 0.00000 8.61717 0.00000
				CHANNELS 3 Zrotation Xrotation Yrotation
				JOINT Spine3
				{
					OFFSET 0.00000 8.61717 0.00000
					CHANNELS 3 Zrotation Xrotation Yrotation
					JOINT Neck
					{
						OFFSET 0.00000 11.07920 1.10792
						CHANNELS 3 Zrotation Xrotation Yrotation
						JOINT Neck1
						{
							OFFSET 0.00000 7.08032 0.00000
							CHANNELS 3 Zrotation Xrotation Yrotation
							JOINT Head
							{
								OFFSET 0.00000 7.08031 0.00000
								CHANNELS 3 Zrotation Xrotation Yrotation
								End site
								{
									OFFSET 0.00000 0.00000 0.00000
								}
							}
						}
					}
					JOINT RightShoulder
					{
						OFFSET -0.01000 7.91373 5.19711
						CHANNELS 3 Zrotation Xrotation Yrotation
						JOINT RightArm
						{
							OFFSET -18.41580 0.00000 0.00000
							CHANNELS 3 Zrotation Xrotation Yrotation
							JOINT RightForeArm
							{
								OFFSET -29.11090 0.00000 0.00000
								CHANNELS 3 Zrotation Xrotation Yrotation
								JOINT RightHand
								{
									OFFSET -24.65040 0.00000 0.00000
									CHANNELS 3 Zrotation Xrotation Yrotation
									JOINT RightHandThumb1
									{
										OFFSET -5.35114 -0.85590 3.97906
										CHANNELS 3 Zrotation Xrotation Yrotation
										JOINT RightHandThumb2
										{
											OFFSET -4.52789 0.00000 0.00000
											CHANNELS 3 Zrotation Xrotation Yrotation
											JOINT RightHandThumb3
											{
												OFFSET -2.46976 0.00000 0.00000
												CHANNELS 3 Zrotation Xrotation Yrotation
												End site
												{
													OFFSET 0.00000 0.00000 0.00000
												}
											}
										}
									}
									JOINT RightHandIndex1
									{
										OFFSET -14.26970 0.00000 2.88139
										CHANNELS 3 Zrotation Xrotation Yrotation
										JOINT RightHandIndex2
										{
											OFFSET -5.48836 0.00000 0.00000
											CHANNELS 3 Zrotation Xrotation Yrotation
											JOINT RightHandIndex3
											{
												OFFSET -3.01859 0.00000 0.00000
												CHANNELS 3 Zrotation Xrotation Yrotation
												End site
												{
													OFFSET 0.00000 0.00000 0.00000
												}
											}
										}
									}
									JOINT RightHandMiddle1
									{
										OFFSET -14.26970 0.00000 -0.09147
										CHANNELS 3 Zrotation Xrotation Yrotation
										JOINT RightHandMiddle2
										{
											OFFSET -6.17441 0.00000 0.00000
											CHANNELS 3 Zrotation Xrotation Yrotation
											JOINT RightHandMiddle3
											{
												OFFSET -3.56743 0.00000 0.00000
												CHANNELS 3 Zrotation Xrotation Yrotation
												End site
												{
													OFFSET 0.00000 0.00000 0.00000
												}
											}
										}
									}
									JOINT RightHandRing1
									{
										OFFSET -12.69180 0.00000 -3.06433
										CHANNELS 3 Zrotation Xrotation Yrotation
										JOINT RightHandRing2
										{
											OFFSET -5.62556 0.00000 0.00000
											CHANNELS 3 Zrotation Xrotation Yrotation
											JOINT RightHandRing3
											{
												OFFSET -3.56744 0.00000 0.00000
												CHANNELS 3 Zrotation Xrotation Yrotation
												End site
												{
													OFFSET 0.00000 0.00000 0.00000
												}
											}
										}
									}
									JOINT RightHandPinky1
									{
										OFFSET -11.11390 0.00000 -6.03719
										CHANNELS 3 Zrotation Xrotation Yrotation
										JOINT RightHandPinky2
										{
											OFFSET -4.52789 0.00000 0.00000
											CHANNELS 3 Zrotation Xrotation Yrotation
											JOINT RightHandPinky3
											{
												OFFSET -2.46976 0.00000 0.00000
												CHANNELS 3 Zrotation Xrotation Yrotation
												End site
												{
													OFFSET 0.00000 0.00000 0.00000
												}
											}
										}
									}
								}
							}
						}
					}
					JOINT LeftShoulder
					{
						OFFSET 0.01000 7.91373 5.19711
						CHANNELS 3 Zrotation Xrotation Yrotation
						JOINT LeftArm
						{
							OFFSET 18.41580 0.00000 0.00000
							CHANNELS 3 Zrotation Xrotation Yrotation
							JOINT LeftForeArm
							{
								OFFSET 29.11090 0.00000 0.00000
								CHANNELS 3 Zrotation Xrotation Yrotation
								JOINT LeftHand
								{
									OFFSET 24.65040 0.00000 0.00000
									CHANNELS 3 Zrotation Xrotation Yrotation
									JOINT LeftHandThumb1
									{
										OFFSET 5.35114 -0.85590 3.97906
										CHANNELS 3 Zrotation Xrotation Yrotation
										JOINT LeftHandThumb2
										{
											OFFSET 4.52789 0.00000 0.00000
											CHANNELS 3 Zrotation Xrotation Yrotation
											JOINT LeftHandThumb3
											{
												OFFSET 2.46977 0.00000 0.00000
												CHANNELS 3 Zrotation Xrotation Yrotation
												End site
												{
													OFFSET 0.00000 0.00000 0.00000
												}
											}
										}
									}
									JOINT LeftHandIndex1
									{
										OFFSET 14.26970 0.00000 2.88139
										CHANNELS 3 Zrotation Xrotation Yrotation
										JOINT LeftHandIndex2
										{
											OFFSET 5.48836 0.00000 0.00000
											CHANNELS 3 Zrotation Xrotation Yrotation
											JOINT LeftHandIndex3
											{
												OFFSET 3.01859 0.00000 0.00000
												CHANNELS 3 Zrotation Xrotation Yrotation
												End site
												{
													OFFSET 0.00000 0.00000 0.00000
												}
											}
										}
									}
									JOINT LeftHandMiddle1
									{
										OFFSET 14.26970 0.00000 -0.09147
										CHANNELS 3 Zrotation Xrotation Yrotation
										JOINT LeftHandMiddle2
										{
											OFFSET 6.17440 0.00000 0.00000
											CHANNELS 3 Zrotation Xrotation Yrotation
											JOINT LeftHandMiddle3
											{
												OFFSET 3.56744 0.00000 0.00000
												CHANNELS 3 Zrotation Xrotation Yrotation
												End site
												{
													OFFSET 0.00000 0.00000 0.00000
												}
											}
										}
									}
									JOINT LeftHandRing1
									{
										OFFSET 12.69180 0.00000 -3.06433
										CHANNELS 3 Zrotation Xrotation Yrotation
										JOINT LeftHandRing2
										{
											OFFSET 5.62556 0.00000 0.00000
											CHANNELS 3 Zrotation Xrotation Yrotation
											JOINT LeftHandRing3
											{
												OFFSET 3.56744 0.00000 0.00000
												CHANNELS 3 Zrotation Xrotation Yrotation
												End site
												{
													OFFSET 0.00000 0.00000 0.00000
												}
											}
										}
									}
									JOINT LeftHandPinky1
									{
										OFFSET 11.11390 0.00000 -6.03719
										CHANNELS 3 Zrotation Xrotation Yrotation
										JOINT LeftHandPinky2
										{
											OFFSET 4.52789 0.00000 0.00000
											CHANNELS 3 Zrotation Xrotation Yrotation
											JOINT LeftHandPinky3
											{
												OFFSET 2.46976 0.00000 0.00000
												CHANNELS 3 Zrotation Xrotation Yrotation
												End site
												{
													OFFSET 0.00000 0.00000 0.00000
												}
											}
										}
									}
								}
							}
						}
					}
					JOINT pCube4
					{
						OFFSET 0.00000 10.91090 1.10792
						CHANNELS 3 Zrotation Xrotation Yrotation
						End site
						{
							OFFSET 0.00000 0.00000 0.00000
						}
					}
				}
			}
		}
	}
	JOINT RightUpLeg
	{
		OFFSET -9.98441 0.00000 0.00000
		CHANNELS 3 Zrotation Xrotation Yrotation
		JOINT RightLeg
		{
			OFFSET 0.00000 -42.11790 0.00000
			CHANNELS 3 Zrotation Xrotation Yrotation
			JOINT RightFoot
			{
				OFFSET 0.00000 -45.00020 -0.00001
				CHANNELS 3 Zrotation Xrotation Yrotation
				JOINT RightForeFoot
				{
					OFFSET 0.00000 -3.74820 0.00000
					CHANNELS 3 Zrotation Xrotation Yrotation
					JOINT RightToeBase
					{
						OFFSET 0.00000 0.06325 14.43120
						CHANNELS 3 Zrotation Xrotation Yrotation
						End site
						{
							OFFSET 0.00000 0.00000 0.00000
						}
					}
				}
			}
		}
	}
	JOINT LeftUpLeg
	{
		OFFSET 9.98441 0.00000 0.00000
		CHANNELS 3 Zrotation Xrotation Yrotation
		JOINT LeftLeg
		{
			OFFSET 0.00000 -42.11800 0.00000
			CHANNELS 3 Zrotation Xrotation Yrotation
			JOINT LeftFoot
			{
				OFFSET 0.00000 -45.00070 0.00000
				CHANNELS 3 Zrotation Xrotation Yrotation
				JOINT LeftForeFoot
				{
					OFFSET 0.00000 -3.74824 0.00000
					CHANNELS 3 Zrotation Xrotation Yrotation
					JOINT LeftToeBase
					{
						OFFSET 0.00000 0.06325 14.43110
						CHANNELS 3 Zrotation Xrotation Yrotation
						End site
						{
							OFFSET 0.00000 0.00000 0.00000
						}
					}
				}
			}
		}
	}
}
MOTION
Frames: 4
Frame Time: 0.050000
0.024655075636450773 -0.0009923183875307814 -0.021142218904030636 0.005943885686533043 0.026686306237332248 -0.02902614914477568 5.989439828162567 5.131086859192084 -2.2723440821814385 -0.7080650332043898 3.6820430093614878 0.3039824347237772 -0.32134067704501823 -0.907630306813822 -0.24203311365752522 -1.268749783837387 -0.47852992916481024 -0.2807849466189065 -1.4387397643340647 13.191102643602523 2.499319980199523 0.20414788992843813 -1.1904068373112853 8.018667443400863 -0.4141315806511281 -18.31443123671698 0.6173613140205795 -10.819375831386475 3.8663978804649375 -18.318619484094043 85.16084130234258 -8.320822549373773 -0.22264972732542698 28.165513611688365 6.104796846680911 82.68753780966264 9.17316785215251 -0.46803029006847285 -4.605454563752464 4.527228426133061 -0.14237104056973207 -1.6325167723126826 -0.04961635398434114 0.014164938496035106 -56.217675939316436 0.0033672321563006343 0.042083343397511415 -56.28391766379345 -38.80565318884643 -0.009351878327369752 -0.014818355241474337 0.009618454555416206 0.0461687639753876 -0.014727548318043784 0.03659157473008097 0.022805789363460963 -0.026576995122361814 -36.66299834541877 0.0029554688041739524 -0.02394341309218828 -0.012691947078136218 -0.022894429275624475 -0.04097759230176671 0.015411627962594899 0.023962956716335956 -0.04301150904752148 -19.80069198728478 0.02915561132959485 0.010853852403835407 0.03183237406364136 0.009628971134618587 0.028024677758410072 0.040996956100377055 -0.018030094865226817 0.042796914338635965 24.041561424804716 -0.04714311131121698 0.0031379530065602044 28.905198929285312 0.041608368476049706 -0.02748278104164218 28.87010110568793 0.03822341756703808 -0.0009161026934387418 13.722011390255938 3.070718068740793 14.787896558154607 -77.55227314610684 12.829567842645206 -19.812063862536828 -28.32073985475464 15.658487015740947 -70.36169150808615 -24.63494713369032 -4.143264298225315 3.3823085964328947 -0.49812446633633056 0.05659629020226232 -8.165240351855168 0.03537022087002856 0.002342664860641682 44.58417857751246 0.004110579578079844 -0.017769907194663634 44.588247162614685 12.485780871936148 -0.00476774331063161 0.026783604379968847 -0.021921215387494985 0.025406367004925146 -0.034300796275256513 -0.037702875648322656 -0.019981285701219886 0.0007880087012550501 11.066399421942187 -0.027305624301806795 0.043945144718173255 0.0035520799680843415 -0.031604349508232946 0.0229863388826748 -0.008972534893765371 0.004312719644632928 0.0028017888126018026 4.79693035300565 -0.023815132424632977 0.03865984477161529 0.019956417922897058 0.017844612563876733 -0.02551546502831216 -0.016705874087664673 0.004299572367438036 0.04579873458883372 -5.5801627810429055 -0.04194024989535787 -0.03281656476311013 -6.675754896430109 -0.047528177198741375 -0.04485458110303975 -6.671843229223554 -0.024583472301328062 0.008745189626003496 -0.02469040848414108 0.017303025499396302 0.004003487376938911 8.012292482053965 3.4458113195018383 -19.2640222430666 0.008701562871485078 10.374145879519704 -0.013588232918188142 -5.63968614899886 -15.659983014525515 3.1456259683984067 0.040470902868461466 -0.009049921668788314 -0.048421585350664494 0.041070561881841626 4.708646518484841 -0.04764810541829054 12.46980123763849 -8.288442776625079 6.855443656099003 -0.003098183874887949 46.41626209174853 -0.012570814379588624 -4.347686258763862 -14.720854689976674 -3.8609081303602233 0.022531268911873615 -0.04115387722524766 0.030262432600919126 0.03996499968426466 -10.723875409728711 0.0005098083461146911 
0.02066621864860021 -0.036439818655600316 0.0021204269438375345 -0.0001254956918039232 -0.04706433011181271 -0.015131797346186877 5.77659131771035 5.262020944639432 -2.2199792739032183 -0.7151771817734046 3.628145251983947 0.3933281388296308 -0.3419761881082712 -0.895855048431047 -0.2712991424538905 -1.2081683728461128 -0.4353280048576789 -0.3045815612352508 -1.286436621179546 12.931388000486663 2.2120379287403327 0.2427010867203331 -1.17177213623474 7.31982902798473 -0.3492187870510218 -18.380123724320892 0.5936253197441416 -10.511281015015667 3.9038533177636743 -18.212428941161132 85.15869064431828 -7.86292373231882 -0.9616485572767496 27.84835772796065 7.018185779518614 81.5504090146855 8.86948441328508 -0.524329158899622 -4.427020716081822 4.523899811072344 -0.11572691767528406 -1.5763494012799997 -0.001757092153368834 0.0155214326460004 -56.239259623802155 -0.009737566395524972 -0.0007599848118770066 -56.24670191359019 -38.80755915132728 0.005044013578956189 0.027348121081729196 0.033977551352955195 -0.0024445545177350764 -0.018776744536656564 0.0020285750717827194 -0.00010101343705442709 -0.032437759460978224 -36.68662826020899 -0.008294275395958048 -0.02940659921968431 0.012346790991425433 0.0005338768099288833 -0.00905993161324835 0.00048266589718686914 -0.018899136156951737 0.02184881901561302 -19.758811426302515 0.005442164193374029 -0.0269938317751419 -0.013060954596009654 0.018251781431988447 0.016809593930977786 -0.002232562347745339 -0.003983846568660303 -0.020787080124033547 24.021814777477292 0.0249573694783717 0.02649614788360432 28.865029747165412 -0.028596592473920674 0.0126158421221744 28.86173144004102 -0.014104961448924544 -0.0015152383220149465 13.302588259113069 3.0831916009745783 14.612881135062562 -77.14619595475888 13.96225745128529 -19.30462243888764 -26.131539591081836 16.621265931586695 -68.3756714946491 -24.725951037192903 -4.177254407178125 3.517675895988262 -0.4936156125086041 0.07416045435916963 -8.10430736995313 0.03300913282947501 -0.03592960056616349 44.58627001928721 -0.04551274919022249 0.04768454021021324 44.54381376182646 12.498158477898716 -0.020108425093647006 0.03617766301883593 -0.0055334998810927525 0.04610622422416102 0.03240458335093884 -0.02000807998020152 0.012149478670688848 -0.021339014688952766 11.133284259578232 0.004422749880517637 0.023873125633183594 -0.014017696033179332 0.012637189356497361 0.017487753020992827 -0.035349684777345174 -0.007599502656246051 -0.014783436601088506 4.807390815682331 0.03713606538723015 0.028388197646046453 0.029762551677366772 0.008748739857769692 -6.133155665536603e-05 0.005608851925374917 -0.039548760609123226 0.018796365259916778 -5.622255216050343 -0.03348086014416462 0.01562768345656012 -6.7368553331859 -0.006684033272963876 -0.017015932754948677 -6.706132000350253 -0.025227170169128104 0.0016182631457237738 -0.012298622363045401 -0.007518146080382847 0.043462934923438154 8.056030570258706 3.465089295919409 -19.245303000666873 -0.03614588141876414 10.376986275247846 0.06277105780124957 -5.6135220207857985 -15.688928352676804 3.188503980981117 -0.017909365688657464 -0.03023891943567919 0.021662169598302864 0.022517378262692428 4.677650322975126 -0.008769566000153352 12.464030037044113 -8.284928709634444 6.932961367245429 -0.020772330366748165 46.32958732488072 -0.006577938508548776 -4.316604275071429 -14.776214545452037 -3.8529628401092095 0.0049779158768291 0.0027182482012622798 -0.008764930127217976 0.03379663296069463 -10.706669657332943 -0.005278846221128254 
0.011944146493809876 -0.011207626868661296 0.010845899493860924 -0.03999592470959336 0.015064673151964483 -0.0484841179636864 5.453031132442244 5.322294698726366 -2.189235648187187 -0.7112902221508319 3.633342696450623 0.355080747616858 -0.38228511142392435 -0.7991212123812954 -0.2922931188577435 -1.1372136768630645 -0.4496859562501265 -0.3215707055402743 -1.2518894525427509 12.656243573973223 1.9531354275195423 0.22125209116326527 -1.297101808993448 6.558205334892272 -0.24367055548220254 -18.433100829244918 0.5355478198762796 -10.195850637338282 3.763474243419086 -18.07440976714826 85.08837063883892 -7.159907272798939 -1.6201507359237965 26.628478387086705 8.307805566471204 80.26768932858778 8.620912028517468 -0.4788627739320734 -4.315396638790299 4.493787656720497 -0.13670411961279597 -1.6337300450756023 0.03680191124952722 -0.04409265752147207 -56.27008278436718 -0.019782722306735098 0.007956843161725987 -56.25236877785104 -38.783076477483384 -0.015501531929009021 0.016278622637666246 -0.008943901664495341 0.03632128801545134 0.03896895219970473 0.0059577119729706555 -0.04363638130554912 -0.02434888881342202 -36.666136209182184 0.031135297322748126 0.043713686121457165 -0.01204245898018693 -0.018483443088270216 -0.03203749289537861 0.0144569573450924 -0.026463712278134183 -0.040664808442084914 -19.739028322091958 -0.005977923525625927 -0.0056609964720823434 0.008023404784624115 0.00556591280404807 -0.021221984007400788 -0.03927269833094733 0.03804059512779834 0.021394610112853592 24.093972339899718 0.031258338322094376 -0.045311339180303604 28.86678854688601 -0.005744567745284327 -0.003124681361127662 28.819672396279838 0.027557910039257626 -0.002635059077120164 12.762242634501447 2.9447564382416656 14.4642050175671 -76.62403588297974 14.896901570911508 -18.446526122705986 -22.481795197107672 17.531043773096037 -65.09597820693938 -24.610238924411558 -3.964394159878625 3.583283936939399 -0.48114814057756594 0.11088917423165318 -8.112824226527497 0.011683033571237074 -0.025200970963484736 44.55960361941302 -0.03216325739544851 -0.007879524029269456 44.59881069510006 12.460278164917481 0.0016495339553754423 0.0013084793308949987 0.0269720713559512 0.00745597163917029 0.01719609733703198 0.005671639447134208 0.006416479626395013 -0.011977818358190187 11.056412829891944 -0.020288445709796408 0.030321031242449083 -0.03274772121075192 -0.010793847646308748 0.024913883352746843 0.025890804058662405 -0.03826892086676841 -0.0001664171818690756 4.7441130344276266 0.023524838082095694 -0.04083108913862925 0.03162863506756461 0.0040206861349306715 -0.008733036625280665 0.044545172840156834 -0.020931992340039677 0.017275671753348123 -5.646202357565581 0.04816797316978171 -0.016430684930651526 -6.6983828941439265 0.020795369351566596 0.016105298279542424 -6.711467172159291 -0.03924141937640863 -0.03520507327888379 0.02459505471759893 0.03926119880612776 -0.031242724316364635 8.012075397687578 3.5031603720682676 -19.247572292883287 0.02201120146880157 10.36612005150784 0.0036633634309939968 -5.664727074590168 -15.689230800187682 3.2346331017247136 -0.021453880646440777 -0.015959710430981554 0.03949449326225407 0.002989821778923211 4.7137772960999795 0.006740648535369597 12.412593833969748 -8.192121778771455 6.853361151636981 0.03810356086038748 46.40023285103399 -0.019455644200056688 -4.341624920024011 -14.785911157694722 -3.8628630766742726 -0.012312710212194 -0.015079907832044086 -0.04700838396082956 0.03355585352904789 -10.755147050765595 -0.02228256478084905 
-0.014518491044224128 0.03693702174441824 -0.016258898591478475 0.019408052349622694 -0.003891465695253043 -0.0055180642071091185 5.10395892892596 5.358533254679858 -2.178810701692337 -0.7964707224142826 3.658903311254072 0.39187530523604813 -0.3858049285167762 -0.7602123032472183 -0.2986909438912208 -1.1527996922223331 -0.35808287314978815 -0.3450377847145615 -1.1785910944440519 12.384016518004978 1.7613486628306265 0.2208642982123034 -1.3250214424821964 5.904829580400215 -0.22020997249124163 -18.424400572237627 0.49174473998127677 -9.845981237150209 3.6785765162240875 -17.90617480965261 84.78520599443436 -5.911921346976839 -2.3361295409084786 23.964392576791738 9.883954945084195 77.92701945130058 8.525675722705277 -0.3985481316769416 -3.945939536528208 4.568594397308627 -0.13912578928728098 -1.6317974496976335 0.02425549396660811 -0.04747211346619121 -56.24125422425976 -0.03803843379337933 -0.028953180800400626 -56.26942344317787 -38.727648515920286 -0.027890867130355917 0.020228972893269095 0.006716254319545815 0.01987609336687681 0.010693265468479487 0.018186740670675678 -0.01310378161916721 0.004772444692040838 -36.675003361811214 0.028441214882828737 0.00837398623147754 -0.030683831767986617 -0.0028546653503285307 0.02000777487346344 0.046668299144957535 0.049090723276292235 0.047815300225575744 -19.73954947235998 0.037020651515336366 -0.014435234427367466 0.03808383678407943 -0.014360744942762968 0.022172003644342762 -0.03670635532717527 -0.02807384022831816 0.022027244041537292 24.0345996364884 0.04868551620012149 0.04811615514280763 28.907535056995677 -0.024021100426011414 0.04894966068128412 28.882939526151947 0.022364509828606126 -0.028296684886992884 12.253265877525605 2.943798649909416 14.401512162001481 -75.84199727669896 15.851447650758052 -17.807780716150383 -18.321844699794113 18.736928427337343 -61.59456597160254 -24.6450098865656 -3.7317391909429403 3.7927214694269886 -0.5136009977605491 0.047959251814904805 -8.121646230888391 -0.017956731836832284 0.03401038930181335 44.57900794820169 0.01930592967420396 -0.02206928679740531 44.52722212384383 12.418041699827848 -0.013368283477438727 -0.02882730030730875 -0.03500426093057926 0.004819418524321477 0.038922437384073715 -0.0386973736807382 0.007698704311928422 0.01155011960805567 11.105421346175458 0.007577163840640506 0.04716105770756989 -0.025476030268904406 -0.008646061324730864 -0.018176108453356692 -0.04158094410948263 -0.03929955153377079 -0.020955777088132125 4.778818590471534 0.012461315158723158 -0.001864050109697877 -0.045289048679540755 -0.032590917915825496 0.028524418332416573 0.041196164097525634 0.014755705720190658 0.02811368985316232 -5.597591971376618 0.03736966733417484 0.043071225365946125 -6.733889374421865 0.007542014707832 0.03993680974940712 -6.697517037508669 -0.026174125371086234 0.020778676633507503 0.02439063220829375 0.029958185993015782 0.010309884195338436 8.044888577930179 3.5237151014629635 -19.232169147399446 0.004518169818538275 10.35256666809903 0.020241968065078456 -5.640714579232019 -15.619956311329448 3.222864749362054 0.02436887566166319 0.014297903462930455 -0.00257783516065954 -0.005435583948823643 4.699299609766754 0.018252968016788117 12.478929329572393 -8.264275479508825 6.841744898967773 0.01235026783586278 46.38929652864553 -0.0060006408954438985 -4.283861675486754 -14.72260255238135 -3.8114013962974447 0.0009298729311076468 -0.036241550612258956 0.03296172843443446 0.04679307539957175 -10.71804428001316 -0.023075567995419266 
